<svg id="Contours" xmlns="http://www.w3.org/2000/svg" viewBox="0 0 1252.03 1252.03"><defs><style>.cls-1{fill:#d2c7e3;}</style></defs><path class="cls-1" d="M0,755.18c2.06-14.1,4.66-27.55,11.32-39.8,12.39-22.79,29.91-39.78,54.36-49.56a91.41,91.41,0,0,1,43.73-6.43c20.23,2.1,39.79,7.7,57.32,18.29,11.2,6.76,21.42,15.15,32.07,22.82.54.39.9,1,1.43,1.39,6,4.3,6,5,8.6-2.19,5.38-15,10.49-30,15.08-45.25,5.06-16.78,9.66-33.71,14-50.68,4.31-16.77,8-33.69,12.1-50.5,3.25-13.3,6.5-26.6,10.23-39.77,4.65-16.36,9.4-32.73,14.84-48.85,7.38-21.9,17.13-42.82,30.15-62a176.84,176.84,0,0,1,20.81-24.85c15-15,33-25.59,54.09-28.39,19-2.51,37.06,1.91,52.56,14,19.83,15.43,30.11,36.54,36.44,60.32,4.22,15.85,4.61,31.87,3.62,47.86-1,16.41-5.3,32.39-11.48,47.66-4.68,11.56-9.3,23.29-15.51,34-7.62,13.16-16.47,25.67-25.55,37.91a208.07,208.07,0,0,1-21.17,24.21,253.58,253.58,0,0,1-55.64,41.76c-12.08,6.63-24.5,12.4-37.86,16-4.38,1.2-7.13,4.31-8.59,8.7C291.8,697.45,286.7,713,281.19,728.4c-3.73,10.43-8,20.69-12.28,30.9-1.34,3.18-1.33,5.45,1.37,7.69,15.94,13.23,32.07,26.14,50.9,35.24,12.83,6.19,25.8,4.7,38.81,1.36,4.9-1.26,9.59-3.36,14.31-5.25,4-1.59,5.88-4.64,5.71-9-1.1-29.22,6.7-56.47,18.26-82.92,10.68-24.47,25.58-46,45.73-63.48,19.5-16.87,40.86-31.13,66.1-38.19,6.66-1.86,13.68-2.46,20.55-3.53,14.73-2.28,28.4,1.34,41.33,8,15.42,8,28.09,19.33,36.11,34.8,5.79,11.17,10,23.18,14.94,34.79a24.11,24.11,0,0,0,3.31,6.1A45.35,45.35,0,0,1,637.1,710c1.31,12.34-.61,24.39-2.06,36.53-.59,5-.91,10.05-1,15.08-.15,9.44-.55,18.93.12,28.33.52,7.33,2.45,14.58,3.91,21.84.17.88,1.27,1.59,1.94,2.38a10.41,10.41,0,0,0,2-1.9c10-16.84,20.55-33.42,29.82-50.66,7.22-13.4,12.65-27.75,19.27-41.49q11-22.74,22.7-45.09a191.69,191.69,0,0,1,14.37-24c9.08-12.42,26-20.65,42.49-17,18.5,4.1,28.31,15.65,32.44,33.4,2.2,9.43.35,18.48-1.43,27.61-2.53,13-5.47,25.83-7.52,38.86-2.15,13.56-3.06,27.32-5.22,40.89-2,12.25-.47,24.22,1.17,36.26a3.29,3.29,0,0,0,1.75,2c.38.18,1.48-.58,1.9-1.16,11-15.27,22.4-30.27,32.78-45.94,10.06-15.19,18.76-31.26,28.58-46.61q18.76-29.32,38.46-58.06c9.74-14.14,23.76-20.18,40.92-19.15,14,.83,30.32,15.43,33.63,29.54,3.37,14.3-.29,27.78-3.49,41.44-3.7,15.83-7.49,31.67-10.42,47.65a122.59,122.59,0,0,0-1.95,26.63c.34,9,2.38,17.91,3.87,26.83.18,1.07,1.6,1.94,2.45,2.89.48-.79.92-1.63,1.47-2.38q8.43-11.52,16.91-23c4.6-6.26,8.83-12.84,13.88-18.71,6.57-7.63,15.85-10.8,25.43-10.67,18.52.27,34.19,12.29,37.93,32.1,2.67,14.12-3.34,25.56-9.86,36.65-10.91,18.58-24.8,35-40.49,49.75-10.66,10-22.81,16.94-37.5,19.38-14.3,2.38-28.13,1.12-41-5.41A76.06,76.06,0,0,1,891,860.11c-4.63-9.35-9.09-18.74-10-29.35-.08-.85-.91-2.33-1.3-2.3a4.08,4.08,0,0,0-2.73,1.39c-6,8.14-11.51,16.74-18,24.48-14.49,17.24-30.16,33-52.57,40.15-15.27,4.88-29.74,2.49-43.82-3.46-9.64-4.07-18.53-9.68-25.73-17.54A79.63,79.63,0,0,1,719,843.35c-.66-2.14-2-3.26-3.66-.93-3.17,4.31-6.23,8.72-9.21,13.17-10.79,16.13-23.34,30.59-40.46,40.18-5.56,3.12-12,4.93-18.34,6.29-14.21,3.06-27.68.11-40.23-6.92a67.67,67.67,0,0,1-21.59-18.93c-8.64-11.7-16.12-24-20.84-37.87-.6-1.74-1.34-3.44-2-5.16-1.65,1.6-3.57,3-4.89,4.83-10.11,14.09-19.61,28.71-32.59,40.46-12.44,11.26-26.79,18.92-43.49,21.7-27.57,4.59-50.8-4.21-70.46-23.37C405,870.7,404,872,396.9,874.09c-10.11,3-20.31,6.1-30.69,7.9A202.41,202.41,0,0,1,334,885c-13.64.16-26.73-3.54-39.25-8.86-20.56-8.74-38.88-21.22-56.72-34.46-1.67-1.24-3.23-2.63-4.9-3.88-7.8-5.83-7.61-5.57-14.39,2-6.2,6.91-12.44,14.08-19.81,19.6a225.92,225.92,0,0,1-32.1,20.15,92.64,92.64,0,0,1-39,9.79,110.24,110.24,0,0,1-57-13.36c-9-4.79-17-11.46-25.16-17.73C31.25,847.12,21.6,832,13.18,816.32,7.48,805.68,3.27,794.19,2,782c-.88-8.74-1.37-17.52-2-26.78m459,19.5c-.33.7-1,1.4-.95,2.09.26,8,.21,16.09,1.09,24.05a61.2,61.2,0,0,0,4,15.8c2.74,6.84,5.9,7.26,11,1.92,12.71-13.42,22.12-29.23,31.89-44.75q16.69-26.53,33.13-53.24c3.68-5.95,9.34-11.29,7.8-19.2a75.86,75.86,0,0,0-4.5-15.1c-2.56-6-7.24-7.64-13.53-5.41-14.24,5-26.08,14-36.93,24.11-12.18,11.31-20,25.84-25.77,41.21-3.31,8.83-4.85,18.33-7.18,28.52m-370-33c-10.23,7.71-12.9,18.71-9.67,29.91a56.65,56.65,0,0,0,24.19,32.85c11,7.08,21.76,9.18,33.56,2.74s21-15.49,29.06-25.9c.75-1,.08-4.15-1-5.26-5.28-5.41-11-10.43-16.43-15.65-9.34-8.93-20.06-16-32.22-19.88-8.67-2.79-18.18-6-27.48,1.19m302.5-260.5c1.17-5,3.05-10,3.35-15.05.68-11.23.49-22.45-4.79-32.93-1.68-3.34-4.17-4.38-6.81-1.69C379,435.83,374.51,440,371.1,445a173,173,0,0,0-23,47.91c-8.05,26.37-15.28,53-22.76,79.53-.28,1,.47,2.25.75,3.39a10.71,10.71,0,0,0,3.08-1.4c2.67-2.46,5.12-5.16,7.76-7.66,18.56-17.64,34.88-37,45-60.83C385.3,498,388,489.77,391.5,481.18Z"/><path class="cls-1" d="M1172.75,537.93c-9.06,4-16.54,9.64-20.6,18.4-3.16,6.81-1.09,10.83,6.95,12.22,13.34,2.3,26.68.42,37.91-7.33,6.11-4.21,11.48-4.6,18-3.09,7,1.63,15.62,13.43,16,20.46.46,10-.77,19.68-7.62,27.85-2.75,3.28-1.57,5.69,2.71,6.75,6,1.5,12.07,3,18.08,4.65,4.11,1.11,8.17,2.34,7.89,8s-4.69,7.3-8.89,8.26c-7.68,1.76-15.55,2.7-23.3,4.21-1.35.26-2.49,1.65-3.73,2.51a27.35,27.35,0,0,0,4,2.36c4.6,1.77,9.71,2.67,13.8,5.21,5.58,3.47,10.86,7.54,11.22,15.43.24,5.36-3.42,10.33-12.75,13.36-9.85,3.2-20,5.69-29.7,9.17-5.78,2.07-11.17,5.29-16.52,8.36-1.46.84-2.14,3-3.18,4.6a24,24,0,0,0,4.2,2.55,36.75,36.75,0,0,0,17.65,1.65c13.35-1.74,25.94,1.21,36.5,10.5,8.91,7.84,8,20.74,3.4,29.92-4.11,8.3-10.82,12.55-20.21,12.29-7-.19-11.88-3.67-15.57-9.42-5.16-8-7-16.49-4.33-25.85.23-.81-.72-2.45-1.57-3a3.92,3.92,0,0,0-3.31.07c-6.62,3.53-9.68,10.07-11.54,16.56-2.71,9.46.12,18.25,6.48,25.85,1.72,2.06,2.78,4,1.72,7.26-.7,2.19,1.19,5.71,2.87,7.92.79,1.06,3.89.9,5.77.49,5-1.07,9.87-2.75,14.87-3.87,7.33-1.63,15.2,3.88,18.07,12.36,3.51,10.4,2.24,16.72-4.4,22.53-3,2.59-6.2,3.07-8.8.18-2.39-2.65-3.08-5.91.36-8.83s3.94-7.08,1.65-10.79c-2.13-3.46-5.52-4.39-9.59-2.56-2.38,1.07-5.13,1.25-7.63,2.11-3.13,1.08-5.14,2.79-4.42,6.82.33,1.89-.9,5.74-1.72,5.83-2.4.24-5.08-.67-7.39-1.72-1-.45-1.49-2.27-2-3.55-1.26-3-3.12-4.48-6.64-4.5-10-.05-19.91-.8-29.05-5.85-6.41-3.54-11-12.63-8.32-19.26,2.48-6.12,7.69-8.81,13.68-9.67,3.45-.49,7.09.39,10.64.7,2.39.21,3.83.3,3-3.17-3.19-12.74-2.62-24.84,6.76-35.35,2.74-3.08-.15-4.38-2.76-5.33-4.79-1.73-8.49-4.74-10.26-9.61-1.92-5.32.26-9.76,3.73-13.59,6.76-7.44,15.89-11.24,24.93-14.6,9.41-3.5,19.4-5.48,29.1-8.24a19.38,19.38,0,0,0,4-2.28,31.83,31.83,0,0,0-3.08-3.64c-7.78-6.93-17.53-8.62-27.34-10a160.44,160.44,0,0,0-17.17-1.92c-5-.16-7.94-2.93-8-7s4-6.17,7.85-7.08c8.82-2.08,17.63-4.22,26.52-5.94,4.27-.83,8.72-.71,13.07-1.13a8.22,8.22,0,0,0,2.29-1c-.63-.67-1.14-1.67-1.9-1.94-4.94-1.78-9.84-4.23-14.94-4.79-4-.44-8.21,1.64-12.36,2.4-10.51,1.93-20.69,2.49-30.12-4.36-11.15-8.12-11.61-20.92-5-31.51.72-1.15,1.42-2.32,2.13-3.47a30.4,30.4,0,0,0-5.06-2.27c-3.34-.86-7-.79-10.1-2.17-9.8-4.39-13.55-15.09-9-25,2-4.4,3.08-9.76,9-11.19.53-.13.76-1.52,1.13-2.32a13.51,13.51,0,0,0-2.95-1.31c-5.91-1.08-12-1.45-17.71-3.17-10-3-17.17-14-17.19-23.63,0-7,0-7-6.72-6.24-10.36,1.22-16-.88-17.77-8.21-1.91-7.85-2.36-16,4.53-22.43.82-.77,1-2.27,1.39-3.43-1.4,0-2.92-.31-4.17.13-5.81,2.05-11.56,4.29-17.31,6.5s-14.27-2.65-15.07-8.72c-.7-5.33-5.23-3.07-7.73-2.31-16.82,5.14-32.87-7.15-36.41-19.31-.35-1.2-.43-2.47-.76-3.69-.39-1.49-.91-2.95-1.37-4.42-1.5.75-3.23,1.23-4.43,2.31-3.09,2.79-5.9,5.88-8.9,8.78-4.71,4.56-12.83,6.22-18.09,3.8-6-2.76-8.7-10.42-6.87-17.88,3.9-15.91,13.08-29.06,21.62-42.56,1.17-1.85,2.11-3.92,3.59-5.48,3.15-3.33,1-5.1-1.86-6-8.8-2.78-10-1-10.88,6.25s-4.65,13.79-9.24,19.61c-7,8.9-14.87,16.92-25.51,21.48-13.17,5.65-25.73,5.35-37.32-4.16-10.08-8.27-15.61-18.69-14.65-31.82,1.24-16.9,11.3-32,28.31-37.07,13.61-4.05,22.71,3.68,22.4,16.52-.06,2.08-2.81,4.49-4.89,5.87-.65.43-4-1.65-4.76-3.23-5.38-11.9-7.6-9.23-16-4.37-10.77,6.21-17.48,24.11-10.66,35.6,8.5,14.32,21.37,19.72,38.46,8.59,11.48-7.48,19.87-18,22.88-31.8A10.72,10.72,0,0,0,970,372.16c-4.67-3.14-5.88-10.06-1.66-12.4,2.49-1.37,8.16-1.47,9.39.15,6.38,8.34,16.16,9,24.72,12,11,3.89,13.43,10.18,7.35,20.09-7.32,11.91-14.44,24-21.13,36.25-2.09,3.85-2.59,8.6-3.56,13-.18.82.87,1.91,1.35,2.88a8.28,8.28,0,0,0,2.38-1.32c7.1-7.84,14.08-15.79,21.2-23.61,6.5-7.15,12.28-15.34,19.91-21,13.41-9.94,29.58-5.31,34.56,10.2,1.76,5.5.55,11.21-3.32,16.23-8.62,11.17-19.77,10.9-31.66,7.52-5.89-1.67-7-1-6.51,5,.8,9.22,9.19,19.07,18.27,18.68,7.91-.34,16.51-.73,22.08-9.23,7.35-11.19,17.56-19.52,31.08-22.17,8-1.57,16-.4,21.61,6.43s5.49,14.7,1.42,22.27c-5.06,9.43-10.6,18.61-15.8,28a22.25,22.25,0,0,0-1.65,5.3c-1.69,6.58.45,9.07,6.54,6.47a82.78,82.78,0,0,0,17.24-10.19c6.94-5.23,13.07-11.78,21.57-14.39,8.74-2.67,17.64-2.15,24.94,3.89,6.42,5.31,8.3,12.63,5.67,20.72a121.74,121.74,0,0,1-5.18,13.85c-1.5,3.22-6.5,4.69-8.75,2.88-2.86-2.3-3.85-4.76-1.62-8.65a37,37,0,0,0,4.4-13.1c.72-5.2-2.85-8.23-8.23-8.74-5.93-.55-10.78,1.41-15.49,5-6.43,4.85-12.42,10-15.06,17.84-4.68,14,4.55,23.53,17.44,24.2,10.21.53,20.37.21,30.28-2.89a8.64,8.64,0,0,1,5.11,0c1.86.66,4.78,2.08,4.84,3.28a9.53,9.53,0,0,1-2.59,6.7c-2.18,2-5.37,3-8.37,4.66m-70.25-86.75c.94-.94,1.91-1.86,2.82-2.83,4-4.28,3.73-9.21-1.43-11.49a13.14,13.14,0,0,0-9.51-.28c-9.53,4.2-18.34,9.65-22.33,20.1a72.55,72.55,0,0,0-2.19,8.86c3.05-.63,6.37-.69,9.11-2,7.8-3.69,15.37-7.88,23.53-12.37m103,150c2,1,3.61,3.43,6.18.86,6.32-6.34,9.5-17.53,6.22-25.9-2.54-6.49-11.16-9.85-13.94-4.27a53.84,53.84,0,0,0-4.82,13.4c-1.2,6.05,2.91,10.63,6.36,15.91m-30.5-12.5a5.49,5.49,0,0,1-.72,1.69c-6.93,7.2-4.87,17.89,5.4,19.74a81,81,0,0,0,12.55,1c3.84.09,4.51-1.36,2.66-4.59-2.07-3.61-4.62-7.12-5.83-11-1.14-3.68-.85-7.81-1.11-11.75a14,14,0,0,1,.36-2.77c-1.13-.07-2.61-.64-3.35-.13-3.27,2.27-6.32,4.85-10,7.82m61,143a14.39,14.39,0,0,0-15.89-14.39c-1.46.17-3.58,1.54-4,2.79a24.42,24.42,0,0,0,1.59,18.35c1.65,3.41,4.06,5.55,8,5.77,4.14.24,6.54-2,8.12-5.43a35.63,35.63,0,0,0,2.14-7.09m-206.5-312.5c6,2.31,12,4.65,18.51,1.52,3.76-1.81,6.18-6.38,5-9.79-1-3-7.4-6.6-10.4-5.7a27.59,27.59,0,0,0-13.76,9.8c-.58.72.08,2.42.66,4.17m135,348c-4.85,2-3.86,5.09-.3,6.44,5.77,2.18,12,3.2,18.07,4.47,1,.22,2.3-.73,3.46-1.14a18.38,18.38,0,0,0-1.59-3.09C1179.36,767.7,1172.65,766.81,1164.5,767.18Z"/><path class="cls-1" d="M751,486.18c-1.53-7.7-3.2-14.87-4.55-22.1-1.63-8.69-3.18-17.41-4.29-26.18-.22-1.77,1.44-5.25,2.6-5.42,2.43-.35,6.07.15,7.47,1.79,3.74,4.37,6.4,9.64,9.78,14.34s6.8,9.73,11,13.8c3.49,3.39,6.41,1.92,7-2.88.52-4.5.66-9,1.06-13.57.24-2.87,1.31-5.86.77-8.55a11.14,11.14,0,0,0-4.22-6.13c-8-5.82-14.33-12.57-13.49-23.26.58-7.45,3.56-14.58,12.94-17.36,3.23-1,8,1.34,9,4.38,1.4,4.21-.59,5.81-4.4,7.37a10.38,10.38,0,0,0-5.37,6.45c-1,4.46,1.95,7.82,5.61,10.33,3.84,2.62,6.43,2,8.29-2.52,1.23-3,3.39-5.58,4.83-8.5,1.8-3.66,5-3.89,7.77-2.49,2.35,1.2,4.83,3.36,2.37,7.16-2.15,3.32-3.34,7.26-5.13,10.84-1.47,3-.88,4.68,2,6.59,8.54,5.64,15.53,12.53,18.1,23.11,1.76,7.22.77,13.45-5,18.08-5.26,4.2-11.33,5.11-17.59,1.72-4.84-2.61-9-3.12-13.12,1.93-3.17,3.9-10.94,2.7-17.92-1.92-1.26-.83-2.95-1-4.44-1.5-.07,1.59-.21,3.18-.2,4.77,0,6.19,1,12.52,0,18.54-1.45,9-13.33,11.56-21.59,3.89A99.81,99.81,0,0,1,720,472.78a87.89,87.89,0,0,0-5-8.39c-.68-1-2.08-1.49-3.15-2.21-.6,1-1.77,2.1-1.7,3.08.57,8.54,1.36,17.07,2.09,25.6.26,3.05,1.18,6.23.61,9.12-.44,2.23-2.56,5.57-4.25,5.78-2.57.31-6.31-.9-8-2.83-4.39-5.11-8-10.94-11.82-16.52-1.15-1.67-2-3.56-3.25-5.13-.73-.91-2-1.37-3.06-2-.48,1.47-1.58,3.07-1.31,4.38A53.45,53.45,0,0,0,684,491.9c5,12.93,10,25.84,15,38.79.61,1.59.63,3.4,1.06,5.07.82,3.28-.85,6.27-3.33,6.88a10.72,10.72,0,0,1-8.27-1.83c-6.11-5-11.63-10.68-17.39-16.1q-8.1-7.61-16.2-15.19c-2.58-2.41-4-5.19-1.36-8.2a6.28,6.28,0,0,1,9-.93c3.87,3.21,7,7.27,10.51,11a16.2,16.2,0,0,0,2.29,2.51,8.75,8.75,0,0,0,2.73.78,9.89,9.89,0,0,0,0-2.67c-2.47-8-5.74-15.78-7.3-23.91a56.39,56.39,0,0,1-.4-20.39c1.53-8.32,9.38-10.2,15.44-4.11,3.9,3.92,6.85,8.79,10.32,13.15a14.18,14.18,0,0,0,2.79,2.13c.39-1.34,1.37-2.81,1.09-4-2.08-8.72-1.2-17.32,1.2-25.74,1-3.52,2.76-7.56,7.2-7.83,4.24-.25,7.67,1.49,10.09,5.64,6,10.24,12.23,20.3,18.67,30.25a102,102,0,0,0,9.24,11.65c.78.9,2.57.92,3.89,1.34.27-1.17.53-2.33.8-4m42-42.5c.12,7.53.86,14.88,8.92,18.38a7,7,0,0,0,5.81-.47c1-.72,1.22-3.5.89-5.18-1.27-6.39-6-10.48-10.63-14.47C797.17,441.22,794.71,442.39,793,443.68Z"/><path class="cls-1" d="M838,396.18c1.3-5.88,9.33-8.64,14.46-4.81,3.93,2.92,5.86,2.29,7.72-1.8.64-1.41,1.56-3.13,2.82-3.72,2.63-1.24,6-3.12,8.23-2.3s4.87,4.91,4.49,7.05c-1.78,9.8-4.27,19.59-11.71,27-2.71,2.68-6.11,4-9.52.62-4.67-4.69-9.59-9.16-13.91-14.15C839,402.21,838.82,399.17,838,396.18Z"/><path class="cls-1" d="M1200.25,509.93c2.61,3.53,3.16,7.13-.3,9.6s-6-.31-7.91-3.08.38-6.92,3.71-7.22A13.86,13.86,0,0,1,1200.25,509.93Z"/><path class="cls-1" d="M734.25,420.93c-2.07-3.65-2.34-6.72,1.93-8.38,2.92-1.13,5.77-.57,6.71,2.64s.22,6.33-3.83,6.9C737.62,422.3,736,421.51,734.25,420.93Z"/></svg>